<?xml version="1.0" encoding="utf-8"?>
<!-- Generator: Adobe Illustrator 18.1.1, SVG Export Plug-In . SVG Version: 6.00 Build 0)  -->
<svg version="1.1" id="Layer_1" xmlns="http://www.w3.org/2000/svg" xmlns:xlink="http://www.w3.org/1999/xlink" x="0px" y="0px"
	 viewBox="0 0 1076 512" enable-background="new 0 0 1076 512" xml:space="preserve">
<g>
	<g>
		<g>
			<path d="M718.5,265.5c0,13.2-10.1,23.9-22.6,23.9c-12.5,0-22.6-10.7-22.6-23.9c0-13.1,10.1-23.8,22.6-23.8
				C708.6,241.8,718.5,252.2,718.5,265.5z M716,265.5c0-12-8.8-21.3-20.1-21.3c-11.1,0-20.2,9.6-20.2,21.3c0,11.9,9,21.4,20.2,21.4
				C707,287,716,277.3,716,265.5z"/>
			<path d="M774.4,288.6h-2.4v-21.9c0-6.1-4.4-10.4-10.5-10.4c-6,0-10.4,4.3-10.4,10.4v21.9h-2.4v-21.9c0-6.1-4.4-10.4-10.5-10.4
				c-6,0-10.4,4.3-10.4,10.4v21.9h-2.4v-33.9h2.4v4.6c2.1-3.4,5.8-5.5,10.4-5.5c5.5,0,9.9,3,11.9,7.5c1.8-4.5,6-7.5,11.5-7.5
				c7.5,0,12.9,5.5,12.9,12.9V288.6z"/>
			<path d="M812.1,288.6h-2.4v-20.5c0-7.4-4-11.9-11.5-11.9c-6.9,0-12.2,5.1-12.2,11.9v20.5h-2.4v-33.9h2.4v5.7
				c2.4-4,6.9-6.6,12.3-6.6c8.7,0,13.8,5.5,13.8,14.3V288.6z"/>
			<path d="M824.1,248.9h-2.4v-6.1h2.4V248.9z M824.1,288.6h-2.4v-33.9h2.4V288.6z"/>
			<path d="M858.3,285.4c-2.4,2.5-6.5,4-11.2,4c-8.6,0-14.6-3.8-15.7-10.7h2.4c1.2,5.5,6.1,8.4,13.2,8.4c4.1,0,7.5-1.3,9.5-3.4
				c1.2-1.3,1.8-2.9,1.6-4.7c-0.1-4.2-3.5-6.3-11.8-7.4c-5.9-0.9-13.1-1.8-13.2-8.6c0-4.6,4.3-9.2,12.8-9.2c7.5,0,12.5,3.4,13.9,9.5
				h-2.5c-1.4-4.5-5.3-7.2-11.3-7.2c-6.1,0-10.5,3-10.4,6.9c0.1,3.9,3.6,5.1,11.1,6.2c7.1,1.1,13.6,2.9,13.9,9.8
				C860.7,281.4,859.9,283.7,858.3,285.4z"/>
			<path d="M881.6,289.4c-9.4,0-16.9-7.9-16.9-17.7c0-9.9,7.6-17.9,16.9-17.9c7.5,0,13.4,4.5,15.7,11.3h-2.6c-2.2-5.4-7-8.8-13-8.8
				c-8,0-14.5,6.9-14.5,15.4c0,8.4,6.5,15.2,14.5,15.2c6.3,0,11.1-3.4,13.1-8.9h2.6C895,284.9,889.1,289.4,881.6,289.4z"/>
			<path d="M907.4,248.9H905v-6.1h2.4V248.9z M907.4,288.6H905v-33.9h2.4V288.6z"/>
			<path d="M916.7,271.6c0.1,8.8,6.7,15.4,14.9,15.4c8,0,11.6-4.4,13.2-8.9h2.6c-2.4,7.3-7.8,11.3-15.8,11.3
				c-9.7,0-17.3-7.8-17.3-17.7s7.6-17.9,16.9-17.9c10.1,0,17.1,9.2,16.9,17.8H916.7z M945.5,269.2c-1.2-7.3-7.2-12.8-14.3-12.8
				c-7.2,0-13.1,5.5-14.2,12.8H945.5z"/>
			<path d="M983.2,288.6h-2.4v-20.5c0-7.4-4-11.9-11.5-11.9c-6.9,0-12.2,5.1-12.2,11.9v20.5h-2.4v-33.9h2.4v5.7
				c2.4-4,6.9-6.6,12.3-6.6c8.7,0,13.8,5.5,13.8,14.3V288.6z"/>
			<path d="M995.3,276.9c0,5.8,2.7,9.8,9.2,9.5v2.2c-7.3,0.7-11.6-4.2-11.6-11.7v-19.8h-4.6v-2.4h4.6v-7.2h2.4v7.2h9.2v2.4h-9.2
				V276.9z"/>
		</g>
	</g>
	<g>
		<g>
			<g>
				<path d="M572.1,278L572.1,278c3.5-3,8.2-3.6,12.3-2.2l0,0c0,0,0.1,0,0.1,0c1.3,0.5,2.7-0.2,3.2-1.5c0.5-1.3-0.2-2.7-1.5-3.2
					c0,0-0.1,0-0.1,0l0,0c-5.7-2.1-12.3-1.1-17.2,3l0,0c0,0,0,0,0,0c-1.1,0.9-1.2,2.5-0.3,3.5C569.5,278.8,571.1,278.9,572.1,278z"
					/>
				<path d="M566.8,269.5L566.8,269.5c6.7-4.9,15.2-5.6,22.4-2.5l0,0c0,0,0,0,0.1,0c1.3,0.6,2.7,0,3.3-1.3c0.6-1.3,0-2.7-1.3-3.3
					c0,0-0.1,0-0.1,0l0,0c-8.7-3.8-19.1-3-27.3,3.1l0,0l0,0c-1.1,0.8-1.4,2.4-0.5,3.5C564.2,270,565.7,270.3,566.8,269.5z"/>
				<path d="M602.6,289.8L602.6,289.8c-0.8,8.3-6.1,15.1-13.1,18.3l0,0c0,0-0.1,0-0.1,0c-1.3,0.6-1.8,2.1-1.2,3.3
					c0.6,1.3,2,1.8,3.3,1.3c0,0,0.1,0,0.1,0l0,0c8.7-3.9,15-12.2,16.1-22.3l0,0l0,0c0.1-1.4-0.9-2.6-2.2-2.7
					C604,287.4,602.7,288.4,602.6,289.8z"/>
				<path d="M586.3,304c6-2.3,10-7.5,11.1-13.4c0,0,0-0.1,0-0.1c0.2-1.4-0.7-2.6-2.1-2.9c-1.4-0.2-2.7,0.7-2.9,2.1l0,0
					c-0.7,4.3-3.6,8-7.9,9.7c-4.3,1.6-9,0.7-12.3-2.1l0,0c0,0,0,0-0.1-0.1c-1.1-0.9-2.6-0.7-3.5,0.3c-0.9,1.1-0.7,2.6,0.3,3.5
					c0,0,0.1,0,0.1,0l0,0C573.7,304.9,580.3,306.3,586.3,304z"/>
				<path d="M556.9,302.2c5.4,8.6,14.8,13.2,24.3,12.8l0,0l0,0c1.4-0.1,2.5-1.2,2.4-2.6c0-1.4-1.2-2.5-2.6-2.4v0
					c-7.8,0.3-15.5-3.4-19.9-10.5c-4.4-7-4.5-15.6-0.8-22.5l0,0c0,0,0,0,0-0.1c0.6-1.2,0.2-2.7-1-3.4c-1.2-0.6-2.7-0.2-3.4,1
					c0,0,0,0.1,0,0.1l0,0C551.4,283.2,551.5,293.6,556.9,302.2z"/>
				<path d="M582.7,280.5L582.7,280.5c-2.4-0.9-5.3-0.4-7.4,1.4c-2,1.7-2.9,4.3-2.5,6.8c0,0.1,0,0.1,0,0.2c0,0,0,0,0,0c0,0,0,0,0,0
					c0,0,0,0,0,0c0,0.1,0,0.1,0.1,0.2c0.5,2.5,2.3,4.6,4.8,5.5l0,0c0,0,0,0,0,0c1.3,0.5,2.7-0.2,3.2-1.5c0.5-1.3-0.2-2.7-1.5-3.2
					l0,0c-0.9-0.3-1.5-1-1.6-1.9l0,0l0,0c0,0,0,0,0,0l0,0c-0.2-0.8,0.1-1.7,0.8-2.3c0.7-0.6,1.6-0.7,2.4-0.5l0,0l0,0c0,0,0,0,0.1,0
					c1.3,0.5,2.7-0.2,3.2-1.5C584.8,282.4,584.1,281,582.7,280.5C582.8,280.5,582.7,280.5,582.7,280.5z"/>
			</g>
		</g>
		<g>
			<g>
				<path d="M625.9,299.5L625.9,299.5c-4.4-1.6-7.3-5.3-8-9.6l0,0c0,0,0-0.1,0-0.1c-0.2-1.4-1.5-2.3-2.9-2c-1.4,0.2-2.3,1.5-2,2.9
					c0,0,0,0.1,0,0.1l0,0c1.1,6,5.2,11.2,11.3,13.4l0,0c0,0,0,0,0,0c1.3,0.5,2.7-0.2,3.2-1.5C627.9,301.4,627.2,300,625.9,299.5z"/>
				<path d="M621.2,308.4L621.2,308.4c-7.6-3.3-12.5-10.4-13.3-18.1l0,0c0,0,0-0.1,0-0.1c-0.2-1.4-1.4-2.4-2.8-2.2
					c-1.4,0.2-2.4,1.4-2.2,2.8c0,0,0,0.1,0,0.1l0,0c1.1,9.4,7,18.1,16.3,22.2l0,0l0,0c1.3,0.6,2.7,0,3.3-1.3
					C623,310.4,622.5,308.9,621.2,308.4z"/>
				<path d="M621,267.2L621,267.2c7.6-3.4,16.1-2.3,22.4,2.3l0,0c0,0,0,0,0.1,0.1c1.1,0.8,2.7,0.5,3.5-0.6c0.8-1.1,0.6-2.7-0.6-3.5
					c0,0-0.1,0-0.1,0l0,0c-7.7-5.5-18.1-6.9-27.4-2.7l0,0l0,0c-1.3,0.6-1.8,2.1-1.3,3.3C618.2,267.2,619.7,267.8,621,267.2z"/>
				<path d="M641.3,274.2c-5-4.1-11.5-5-17.1-2.9c0,0-0.1,0-0.1,0c-1.3,0.5-1.9,1.9-1.5,3.2c0.5,1.3,1.9,1.9,3.2,1.5l0,0
					c4-1.5,8.8-0.9,12.3,2c3.6,2.9,5.1,7.5,4.4,11.7l0,0c0,0,0,0.1,0,0.1c-0.2,1.4,0.7,2.7,2.1,2.9c1.4,0.2,2.6-0.7,2.9-2.1
					c0,0,0-0.1,0-0.1l0,0C648.5,284.6,646.3,278.3,641.3,274.2z"/>
				<path d="M654.6,300.6c4.7-9,4-19.4-1.1-27.5l0,0l0,0c-0.7-1.2-2.3-1.5-3.4-0.8c-1.2,0.7-1.5,2.3-0.8,3.4l0,0
					c4.1,6.6,4.8,15.1,0.9,22.5c-3.9,7.4-11.3,11.7-19.1,12l0,0c0,0-0.1,0-0.1,0c-1.4,0.1-2.5,1.2-2.4,2.6c0.1,1.4,1.2,2.5,2.6,2.4
					c0,0,0.1,0,0.1,0l0,0C640.8,314.8,649.8,309.6,654.6,300.6z"/>
				<path d="M622.8,289L622.8,289c0.5,2.6,2.2,4.8,4.8,5.7c2.5,0.9,5.2,0.4,7.2-1.2c0.1,0,0.1-0.1,0.2-0.1c0,0,0,0,0,0c0,0,0,0,0,0
					c0,0,0,0,0,0c0.1,0,0.1-0.1,0.1-0.1c1.9-1.7,2.9-4.2,2.4-6.9l0,0c0,0,0,0,0,0c-0.2-1.4-1.5-2.3-2.9-2c-1.4,0.2-2.3,1.5-2,2.9
					l0,0c0.2,0.9-0.2,1.8-0.9,2.3l0,0l0,0c0,0,0,0,0,0l0,0c-0.7,0.5-1.6,0.8-2.4,0.4c-0.9-0.3-1.4-1.1-1.6-1.9l0,0l0,0
					c0,0,0-0.1,0-0.1c-0.2-1.4-1.5-2.3-2.9-2C623.4,286.3,622.5,287.6,622.8,289C622.8,289,622.8,289,622.8,289z"/>
			</g>
		</g>
		<g>
			<g>
				<path d="M617.2,242.1L617.2,242.1c0.8,4.6-1,9-4.3,11.7l0,0c0,0-0.1,0-0.1,0c-1.1,0.9-1.2,2.5-0.3,3.5c0.9,1.1,2.5,1.2,3.5,0.3
					c0,0,0,0,0.1-0.1l0,0c4.6-3.9,7.1-10.1,6-16.4l0,0c0,0,0,0,0,0c-0.2-1.4-1.5-2.3-2.9-2C617.9,239.5,617,240.8,617.2,242.1z"/>
				<path d="M627.3,241.8L627.3,241.8c0.9,8.3-2.8,16-9,20.6l0,0c0,0-0.1,0-0.1,0c-1.1,0.8-1.3,2.4-0.5,3.5c0.8,1.1,2.4,1.4,3.5,0.5
					c0,0,0,0,0.1-0.1l0,0c7.6-5.6,12.2-15.1,11-25.2l0,0l0,0c-0.2-1.4-1.4-2.4-2.8-2.2C628.1,239.2,627.1,240.4,627.3,241.8z"/>
				<path d="M591.8,262.6L591.8,262.6c-6.8-4.9-10-12.8-9.2-20.5l0,0c0,0,0-0.1,0-0.1c0.1-1.4-0.9-2.6-2.2-2.7
					c-1.4-0.1-2.6,0.9-2.7,2.2c0,0,0,0.1,0,0.1l0,0c-0.9,9.5,3,19.1,11.3,25.1l0,0l0,0c1.1,0.8,2.7,0.5,3.5-0.6
					C593.1,264.9,592.9,263.4,591.8,262.6z"/>
				<path d="M587.6,241.4c-1.1,6.3,1.4,12.4,6,16.3c0,0,0.1,0.1,0.1,0.1c1.1,0.9,2.6,0.7,3.5-0.3c0.9-1.1,0.7-2.6-0.3-3.5l0,0
					c-3.3-2.7-5.2-7.1-4.4-11.7c0.8-4.6,3.9-8.1,8-9.6l0,0c0,0,0.1,0,0.1,0c1.3-0.5,2-1.9,1.5-3.2c-0.5-1.3-1.9-1.9-3.2-1.5
					c0,0-0.1,0-0.1,0l0,0C593.1,230,588.7,235,587.6,241.4z"/>
				<path d="M603.8,216.8c-10.2,0.4-18.8,6.3-23.3,14.7l0,0l0,0c-0.6,1.2-0.2,2.7,1,3.4c1.2,0.6,2.7,0.2,3.4-1l0,0
					c3.6-6.9,10.7-11.7,19-12c8.3-0.3,15.7,3.9,19.9,10.5l0,0c0,0,0,0.1,0,0.1c0.7,1.2,2.3,1.5,3.5,0.8c1.2-0.7,1.5-2.3,0.8-3.4
					c0,0,0,0-0.1-0.1l0,0C623.1,221.6,614,216.4,603.8,216.8z"/>
				<path d="M609.8,249.9L609.8,249.9c2-1.7,3-4.4,2.4-7.1c-0.5-2.6-2.4-4.7-4.7-5.5c-0.1,0-0.1-0.1-0.2-0.1c0,0,0,0,0,0
					c0,0,0,0,0,0c0,0,0,0,0,0c-0.1,0-0.1,0-0.2,0c-2.4-0.8-5.1-0.3-7.2,1.5l0,0c0,0,0,0,0,0c-1,0.9-1.2,2.5-0.2,3.5
					c0.9,1,2.5,1.2,3.5,0.2l0,0c0.7-0.6,1.6-0.7,2.4-0.5l0,0l0,0c0,0,0,0,0,0l0,0c0.8,0.3,1.5,1,1.6,1.9c0.2,0.9-0.2,1.8-0.8,2.4
					l0,0l0,0c0,0,0,0-0.1,0c-1,0.9-1.2,2.5-0.2,3.5C607.1,250.8,608.7,250.9,609.8,249.9C609.7,250,609.8,249.9,609.8,249.9z"/>
			</g>
		</g>
	</g>
</g>
<g>
	<g>
		<g>
			<g>
				<path d="M179.4,242.7L179.4,242.7c8-6.7,18.6-8.2,27.8-4.9l0,0c0.1,0,0.1,0.1,0.2,0.1c2.9,1.1,6.2-0.5,7.2-3.4
					c1.1-2.9-0.5-6.2-3.4-7.2c-0.1,0-0.1,0-0.2,0l0,0c-12.8-4.6-27.7-2.5-38.9,6.9l0,0c0,0,0,0,0,0c-2.4,2-2.7,5.6-0.7,7.9
					C173.4,244.4,177,244.7,179.4,242.7z"/>
				<path d="M167.4,223.4L167.4,223.4c15.1-11.1,34.4-12.6,50.5-5.6l0,0c0.1,0,0.1,0.1,0.2,0.1c2.9,1.2,6.2-0.1,7.4-2.9
					c1.2-2.9,0-6.2-2.9-7.4c-0.1,0-0.1,0-0.2-0.1l0,0c-19.6-8.6-43.2-6.7-61.7,6.9l0,0l0,0c-2.5,1.8-3,5.4-1.2,7.9
					C161.4,224.7,164.9,225.3,167.4,223.4z"/>
				<path d="M248.1,269.4L248.1,269.4c-1.9,18.7-13.7,34-29.7,41.2l0,0c-0.1,0-0.1,0-0.2,0.1c-2.8,1.3-4.1,4.6-2.8,7.5
					c1.3,2.8,4.6,4.1,7.5,2.8c0.1,0,0.1-0.1,0.2-0.1l0,0c19.5-8.8,34-27.5,36.2-50.4l0,0l0,0c0.3-3.1-2-5.9-5.1-6.2
					C251.2,264,248.4,266.3,248.1,269.4z"/>
				<path d="M211.4,301.3c13.6-5.1,22.7-16.9,25-30.2c0-0.1,0.1-0.2,0.1-0.3c0.5-3.1-1.6-6-4.6-6.5c-3.1-0.5-6,1.6-6.5,4.6l0,0
					c-1.6,9.6-8.1,18.1-17.9,21.8c-9.8,3.7-20.3,1.5-27.8-4.7l0,0c-0.1-0.1-0.1-0.1-0.1-0.1c-2.4-2-6-1.6-7.9,0.8
					c-2,2.4-1.6,6,0.8,7.9c0.1,0,0.1,0.1,0.2,0.1l0,0C183,303.4,197.7,306.4,211.4,301.3z"/>
				<path d="M145,297.4c12.2,19.4,33.5,29.8,54.9,29l0,0l0,0c3.1-0.1,5.5-2.7,5.4-5.9c-0.1-3.1-2.7-5.5-5.9-5.4v0
					c-17.5,0.7-34.9-7.8-44.9-23.7c-10-15.9-10.1-35.2-1.9-50.7l0,0c0-0.1,0.1-0.1,0.1-0.2c1.5-2.8,0.4-6.2-2.4-7.6
					c-2.7-1.5-6.2-0.4-7.6,2.4c0,0.1,0,0.1-0.1,0.2l0,0C132.7,254.3,132.8,277.9,145,297.4z"/>
				<path d="M203.2,248.4L203.2,248.4c-5.5-1.9-11.9-1-16.6,3.1c-4.6,3.9-6.5,9.8-5.7,15.4c0,0.1,0,0.3,0,0.4c0,0,0,0,0,0.1
					c0,0,0,0,0,0c0,0,0,0,0,0.1c0,0.1,0.1,0.3,0.1,0.4c1.2,5.6,5.1,10.4,10.9,12.5l0,0c0,0,0,0,0,0c2.9,1,6.2-0.5,7.2-3.4
					c1-2.9-0.5-6.2-3.4-7.2l0,0c-2-0.7-3.3-2.4-3.6-4.3l0,0l0,0c0,0,0,0,0,0l0,0c-0.3-1.9,0.3-3.9,1.9-5.3c1.6-1.4,3.7-1.7,5.5-1
					l0,0l0,0c0.1,0,0.1,0.1,0.2,0.1c2.9,1,6.2-0.5,7.2-3.4c1-2.9-0.5-6.2-3.4-7.2C203.3,248.4,203.3,248.4,203.2,248.4z"/>
			</g>
		</g>
		<g>
			<g>
				<path d="M300.8,291.2L300.8,291.2c-9.8-3.6-16.4-12-18.1-21.6l0,0c0-0.1,0-0.1,0-0.2c-0.5-3.1-3.5-5.1-6.5-4.6
					c-3.1,0.5-5.1,3.5-4.6,6.5c0,0.1,0,0.1,0.1,0.2l0,0c2.4,13.4,11.7,25.3,25.4,30.2l0,0c0,0,0,0,0,0c2.9,1.1,6.2-0.5,7.2-3.4
					C305.3,295.5,303.7,292.2,300.8,291.2z"/>
				<path d="M290.1,311.2L290.1,311.2c-17.2-7.5-28.1-23.5-30.1-40.9l0,0c0-0.1,0-0.1,0-0.2c-0.3-3.1-3.1-5.3-6.2-5
					c-3.1,0.3-5.3,3.1-5,6.2c0,0.1,0,0.1,0,0.2l0,0c2.4,21.3,15.8,40.8,36.8,50l0,0l0,0c2.9,1.2,6.2,0,7.4-2.9
					C294.2,315.8,292.9,312.4,290.1,311.2z"/>
				<path d="M289.5,218.3L289.5,218.3c17.1-7.7,36.3-5.1,50.5,5.1l0,0c0.1,0,0.1,0.1,0.1,0.1c2.5,1.8,6.1,1.2,7.9-1.3
					c1.8-2.5,1.2-6.1-1.3-7.9c-0.1,0-0.1-0.1-0.2-0.1l0,0c-17.4-12.5-40.8-15.6-61.8-6.2l0,0l0,0c-2.8,1.3-4.1,4.6-2.8,7.5
					C283.3,218.3,286.7,219.6,289.5,218.3z"/>
				<path d="M335.5,234.1c-11.2-9.2-25.9-11.2-38.6-6.6c-0.1,0-0.2,0-0.3,0.1c-2.9,1.1-4.4,4.3-3.3,7.3c1.1,2.9,4.3,4.4,7.3,3.3l0,0
					c9.1-3.4,19.8-2,27.8,4.6c8.1,6.6,11.5,16.8,9.9,26.4l0,0c0,0.1,0,0.1,0,0.2c-0.5,3.1,1.6,6,4.6,6.5c3.1,0.5,6-1.6,6.5-4.6
					c0-0.1,0-0.1,0-0.2l0,0C351.6,257.7,346.8,243.4,335.5,234.1z"/>
				<path d="M365.3,293.6c10.7-20.3,9-43.9-2.4-62l0,0l0,0c-1.7-2.6-5.1-3.4-7.8-1.8c-2.6,1.7-3.4,5.1-1.8,7.8l0,0
					c9.3,14.9,10.7,34.1,2,50.7c-8.8,16.6-25.5,26.3-43,27l0,0c-0.1,0-0.1,0-0.2,0c-3.1,0.1-5.5,2.7-5.4,5.9
					c0.1,3.1,2.7,5.5,5.9,5.4c0.1,0,0.1,0,0.2,0l0,0C334.2,325.8,354.6,313.9,365.3,293.6z"/>
				<path d="M293.7,267.6L293.7,267.6c1,5.8,5,10.8,10.9,13c5.7,2.1,11.7,0.8,16.2-2.6c0.1-0.1,0.2-0.1,0.3-0.2c0,0,0,0,0-0.1
					c0,0,0,0,0,0c0,0,0,0,0.1,0c0.1-0.1,0.2-0.2,0.3-0.3c4.3-3.8,6.5-9.6,5.5-15.6l0,0c0,0,0,0,0,0c-0.5-3.1-3.5-5.1-6.5-4.6
					c-3.1,0.5-5.1,3.5-4.6,6.5l0,0c0.4,2.1-0.4,4-1.9,5.3l0,0l0,0c0,0,0,0,0,0l0,0c-1.5,1.2-3.6,1.7-5.5,1c-2-0.7-3.3-2.4-3.6-4.3
					l0,0l0,0c0-0.1,0-0.1,0-0.2c-0.5-3.1-3.5-5.1-6.5-4.6c-3.1,0.5-5.1,3.5-4.6,6.5C293.6,267.5,293.7,267.5,293.7,267.6z"/>
			</g>
		</g>
		<g>
			<g>
				<path d="M281.1,161.7L281.1,161.7c1.8,10.3-2.2,20.2-9.6,26.5l0,0c-0.1,0-0.1,0.1-0.2,0.1c-2.4,2-2.7,5.6-0.7,8
					c2,2.4,5.6,2.7,8,0.7c0.1,0,0.1-0.1,0.1-0.1l0,0c10.4-8.8,16-22.7,13.5-37.1l0,0c0,0,0,0,0,0c-0.5-3.1-3.5-5.1-6.5-4.6
					C282.6,155.7,280.6,158.6,281.1,161.7z"/>
				<path d="M303.8,161L303.8,161c2.1,18.7-6.3,36.1-20.4,46.5l0,0c0,0-0.1,0.1-0.2,0.1c-2.5,1.8-3,5.4-1.2,7.9
					c1.9,2.5,5.4,3.1,7.9,1.2c0.1,0,0.1-0.1,0.1-0.1l0,0c17.2-12.7,27.4-34,24.9-56.9l0,0l0,0c-0.3-3.1-3.1-5.3-6.2-5
					C305.7,155.1,303.4,157.9,303.8,161z"/>
				<path d="M223.7,207.9L223.7,207.9c-15.3-11-22.6-28.8-20.9-46.3l0,0c0-0.1,0-0.1,0-0.2c0.3-3.1-2-5.9-5.1-6.2
					c-3.1-0.3-5.9,2-6.2,5.1c0,0.1,0,0.1,0,0.2l-0.1,0c-2.1,21.3,6.9,43.2,25.5,56.6l0,0l0,0c2.5,1.8,6.1,1.2,7.9-1.3
					C226.8,213.2,226.2,209.7,223.7,207.9z"/>
				<path d="M214.3,160.1c-2.4,14.3,3.3,28.1,13.6,36.8c0.1,0.1,0.1,0.2,0.2,0.2c2.4,2,6,1.6,7.9-0.8c2-2.4,1.6-6-0.8-7.9l0,0
					c-7.5-6.2-11.6-16.1-9.9-26.4c1.7-10.3,8.8-18.3,17.9-21.8l0,0c0.1,0,0.1,0,0.2-0.1c2.9-1.1,4.4-4.3,3.3-7.3
					c-1.1-2.9-4.3-4.4-7.3-3.3c-0.1,0-0.1,0.1-0.2,0.1l0,0C226.7,134.5,216.7,145.7,214.3,160.1z"/>
				<path d="M250.9,104.6c-23,0.9-42.5,14.1-52.5,33.1l0,0l0,0c-1.5,2.8-0.4,6.2,2.4,7.6c2.8,1.5,6.2,0.4,7.6-2.4l0,0
					c8.2-15.5,24.2-26.4,43-27.1c18.8-0.7,35.5,8.9,44.9,23.7l0,0c0,0.1,0,0.1,0.1,0.2c1.7,2.6,5.1,3.4,7.8,1.8
					c2.6-1.7,3.4-5.1,1.8-7.8c0-0.1-0.1-0.1-0.1-0.2l0,0C294.4,115.4,273.9,103.7,250.9,104.6z"/>
				<path d="M264.3,179.3L264.3,179.3c4.4-3.8,6.7-9.8,5.5-16c-1.2-5.9-5.3-10.5-10.6-12.5c-0.1-0.1-0.2-0.1-0.4-0.2c0,0,0,0-0.1,0
					c0,0,0,0,0,0c0,0,0,0-0.1,0c-0.1-0.1-0.3-0.1-0.4-0.1c-5.4-1.7-11.6-0.7-16.2,3.3l0,0c0,0,0,0,0,0c-2.4,2-2.6,5.6-0.6,8
					c2,2.4,5.6,2.6,8,0.5l0,0c1.6-1.4,3.7-1.7,5.5-1.1l0,0l0,0c0,0,0,0,0,0l0,0c1.8,0.6,3.3,2.2,3.7,4.2c0.4,2-0.4,4-1.8,5.3l0,0
					l0,0c-0.1,0-0.1,0.1-0.2,0.1c-2.4,2-2.6,5.6-0.6,8c2,2.4,5.6,2.6,8,0.5C264.2,179.4,264.3,179.4,264.3,179.3z"/>
			</g>
		</g>
	</g>
	<g>
		<path d="M139.9,367.8c0,13.2-10.1,23.9-22.6,23.9c-12.5,0-22.6-10.7-22.6-23.9c0-13.1,10.1-23.8,22.6-23.8
			C130,344,139.9,354.4,139.9,367.8z M137.4,367.8c0-12-8.8-21.3-20.1-21.3c-11.1,0-20.2,9.6-20.2,21.3c0,11.9,9,21.4,20.2,21.4
			C128.4,389.2,137.4,379.6,137.4,367.8z"/>
		<path d="M195.8,390.8h-2.4V369c0-6.1-4.4-10.4-10.5-10.4c-6,0-10.4,4.3-10.4,10.4v21.9H170V369c0-6.1-4.4-10.4-10.5-10.4
			c-6,0-10.4,4.3-10.4,10.4v21.9h-2.4v-33.9h2.4v4.6c2.1-3.4,5.8-5.5,10.4-5.5c5.5,0,9.9,3,11.9,7.5c1.8-4.5,6-7.5,11.5-7.5
			c7.5,0,12.9,5.5,12.9,12.9V390.8z"/>
		<path d="M233.5,390.8h-2.4v-20.5c0-7.4-4-11.9-11.5-11.9c-6.9,0-12.2,5.1-12.2,11.9v20.5H205v-33.9h2.4v5.7
			c2.4-4,6.9-6.6,12.3-6.6c8.7,0,13.8,5.5,13.8,14.3V390.8z"/>
		<path d="M245.5,351.2h-2.4v-6.1h2.4V351.2z M245.5,390.8h-2.4v-33.9h2.4V390.8z"/>
		<path d="M279.7,387.7c-2.4,2.5-6.5,4-11.2,4c-8.6,0-14.6-3.8-15.7-10.7h2.4c1.2,5.5,6.1,8.4,13.2,8.4c4.1,0,7.5-1.3,9.5-3.4
			c1.2-1.3,1.8-2.9,1.6-4.7c-0.1-4.2-3.5-6.3-11.8-7.4c-5.9-0.9-13.1-1.8-13.2-8.6c0-4.6,4.3-9.2,12.8-9.2c7.5,0,12.5,3.4,13.9,9.5
			h-2.5c-1.4-4.5-5.3-7.2-11.3-7.2c-6.1,0-10.5,3-10.4,6.9c0.1,3.9,3.6,5.1,11.1,6.2c7.1,1.1,13.6,2.9,13.9,9.8
			C282.1,383.6,281.3,386,279.7,387.7z"/>
		<path d="M303,391.6c-9.4,0-16.9-7.9-16.9-17.7c0-9.9,7.6-17.9,16.9-17.9c7.5,0,13.4,4.5,15.7,11.3H316c-2.2-5.4-7-8.8-13-8.8
			c-8,0-14.5,6.9-14.5,15.4c0,8.4,6.5,15.2,14.5,15.2c6.3,0,11.1-3.4,13.1-8.9h2.6C316.4,387.2,310.5,391.6,303,391.6z"/>
		<path d="M328.8,351.2h-2.4v-6.1h2.4V351.2z M328.8,390.8h-2.4v-33.9h2.4V390.8z"/>
		<path d="M338.1,373.8c0.1,8.8,6.7,15.4,14.9,15.4c8,0,11.6-4.4,13.2-8.9h2.6c-2.4,7.3-7.8,11.3-15.8,11.3
			c-9.7,0-17.3-7.8-17.3-17.7s7.6-17.9,16.9-17.9c10.1,0,17.1,9.2,16.9,17.8H338.1z M366.9,371.4c-1.2-7.3-7.2-12.8-14.3-12.8
			c-7.2,0-13.1,5.5-14.2,12.8H366.9z"/>
		<path d="M404.6,390.8h-2.4v-20.5c0-7.4-4-11.9-11.5-11.9c-6.9,0-12.2,5.1-12.2,11.9v20.5h-2.4v-33.9h2.4v5.7
			c2.4-4,6.9-6.6,12.3-6.6c8.7,0,13.8,5.5,13.8,14.3V390.8z"/>
		<path d="M416.7,379.1c0,5.8,2.7,9.8,9.2,9.5v2.2c-7.3,0.7-11.6-4.2-11.6-11.7v-19.8h-4.6v-2.4h4.6v-7.2h2.4v7.2h9.2v2.4h-9.2
			V379.1z"/>
	</g>
</g>
</svg>
